# xmcd
#
# Track frame offsets: 
#        150
#        45290
#        79050
#        117492
#        222165
#        238695
#
# Disc length: 4125 seconds
#
# Revision: 1
# Processed by: cddbd v1.5.2PL0 Copyright (c) Steve Scherf et al.
# Submitted via: ExactAudioCopy v0.99pb4
#
DISCID=48101b06
DTITLE=dn,Qs花 - 哿n干c11
DYEAR=1900
DGENRE=Jip Jop
TTITLE0=睫__
TTITLE1=簧r}D
TTITLE2=тCl
TTITLE3=代r
TTITLE4=弧杠好莱N
TTITLE5=x的x秸
EXTD=
EXTT0=
EXTT1=
EXTT2=
EXTT3=
EXTT4=
EXTT5=
PLAYORDER=
